<svg width="32" height="32" viewBox="0 0 32 32" fill="none" xmlns="http://www.w3.org/2000/svg">
<rect width="32" height="32" rx="16" fill="#EB5757"/>
<path d="M16.1897 16.0977V18.4619H19.5581C19.1187 19.8945 17.9211 20.9207 16.1897 20.9207C14.1287 20.9207 12.4565 19.2485 12.4565 17.1875C12.4565 15.1265 14.1265 13.4543 16.1897 13.4543C17.1169 13.4543 17.9629 13.7949 18.6155 14.3552L20.3557 12.6128C19.2571 11.6108 17.7937 11 16.1897 11C12.7708 11 10 13.7708 10 17.1875C10 20.6042 12.7708 23.375 16.1897 23.375C21.384 23.375 22.531 18.5168 22.0212 16.1064L16.1897 16.0977Z" fill="white"/>
</svg>
