<svg width="18" height="18" viewBox="0 0 18 18" fill="none" xmlns="http://www.w3.org/2000/svg">
<path fill-rule="evenodd" clip-rule="evenodd" d="M9 18C13.9706 18 18 13.9706 18 9C18 4.02944 13.9706 0 9 0C4.02944 0 0 4.02944 0 9C0 13.9706 4.02944 18 9 18ZM12.3737 7.70711C12.7643 7.31658 12.7643 6.68342 12.3737 6.29289C11.9832 5.90237 11.35 5.90237 10.9595 6.29289L7.99996 9.25245L7.0404 8.29289C6.64988 7.90237 6.01671 7.90237 5.62619 8.29289C5.23566 8.68342 5.23566 9.31658 5.62619 9.70711L7.29285 11.3738C7.68338 11.7643 8.31654 11.7643 8.70707 11.3738L12.3737 7.70711Z" fill="#162828" fill-opacity="0.2"/>
</svg>
