<svg width="32" height="32" viewBox="0 0 32 32" fill="none" xmlns="http://www.w3.org/2000/svg">
<circle opacity="0.2" cx="16" cy="16" r="16" fill="#00A3A1"/>
<path fill-rule="evenodd" clip-rule="evenodd" d="M13.1088 9.08591C11.9692 9.13732 10.9816 9.41594 10.184 10.2101C9.38373 11.0084 9.1086 11.9999 9.05706 13.1276C9.02502 13.8314 8.83765 19.1487 9.38094 20.5432C9.74732 21.484 10.4689 22.2072 11.4183 22.5748C11.8613 22.7471 12.367 22.8638 13.1088 22.8979C19.3113 23.1786 21.6106 23.0257 22.5801 20.5432C22.7522 20.1013 22.8706 19.5962 22.9033 18.8562C23.1868 12.6377 22.8573 11.2898 21.7763 10.2101C20.9189 9.3548 19.9103 8.77255 13.1088 9.08591ZM13.1659 21.6474C12.4868 21.6168 12.1184 21.5036 11.8725 21.4084C11.254 21.168 10.7894 20.7052 10.5505 20.0903C10.1367 19.0308 10.274 13.9983 10.3109 13.184C10.3471 12.3864 10.5087 11.6575 11.0715 11.0947C11.768 10.3999 12.6679 10.0595 18.7953 10.336C19.5949 10.3721 20.3255 10.5333 20.8897 11.0947C21.5862 11.7895 21.9317 12.6963 21.6503 18.8001C21.6197 19.4775 21.5061 19.8451 21.4107 20.0903C20.7804 21.7058 19.3302 21.9302 13.1659 21.6474ZM18.8627 12.2827C18.8627 12.7427 19.2367 13.1165 19.6985 13.1165C20.1603 13.1165 20.5351 12.7427 20.5351 12.2827C20.5351 11.8228 20.1603 11.449 19.6985 11.449C19.2367 11.449 18.8627 11.8228 18.8627 12.2827ZM12.4039 15.9915C12.4039 17.9619 14.0052 19.5593 15.9806 19.5593C17.9559 19.5593 19.5573 17.9619 19.5573 15.9915C19.5573 14.021 17.9559 12.4244 15.9806 12.4244C14.0052 12.4244 12.4039 14.021 12.4039 15.9915ZM13.6591 15.9916C13.6591 14.7131 14.6983 13.6758 15.9806 13.6758C17.2629 13.6758 18.3021 14.7131 18.3021 15.9916C18.3021 17.2707 17.2629 18.308 15.9806 18.308C14.6983 18.308 13.6591 17.2707 13.6591 15.9916Z" fill="#00A3A1"/>
</svg>
