<svg width="84" height="33" viewBox="0 0 84 33" fill="none" xmlns="http://www.w3.org/2000/svg">
<path d="M23 26.2695H13.3086L16.0391 31.9883H11.7852L9.35938 26.2695H6.41797L4.70703 31.9883H0.675781L4.71875 18.9102V0.523438H23V26.2695ZM22.3789 25.6484V1.14453H5.33984V16.8828L6.06641 14.5391H10.0156L6.60547 25.6484H9.08984L7.73047 22.4375L15.418 14.5391H20.293L11.5742 22.6367L13.0156 25.6484H22.3789ZM43.2617 26.2695H24.9805V25.2383H24.7695L22.5898 31.9883H18.957L24.3594 14.5391H24.9805V0.523438H43.2617V26.2695ZM42.6406 25.6484V1.14453H25.6016V14.5391H28.8242C30.4805 14.5391 31.6445 14.582 32.3164 14.668C33.5352 14.8242 34.4492 15.1484 35.0586 15.6406C35.8008 16.2422 36.1719 17.1328 36.1719 18.3125C36.1719 18.8047 36.1094 19.3477 35.9844 19.9414C35.7578 21.4414 34.9922 22.6602 33.6875 23.5977C32.1641 24.6914 30.0938 25.2383 27.4766 25.2383H25.6016V25.6484H42.6406ZM32.3516 19.9414C32.5312 19.4336 32.6211 19 32.6211 18.6406C32.6211 18.0156 32.3125 17.5938 31.6953 17.375C31.2109 17.2031 30.3711 17.1172 29.1758 17.1172C28.957 17.1172 28.5859 17.1211 28.0625 17.1289C27.5469 17.1367 27.1406 17.1406 26.8438 17.1406L25.6016 21.8164V22.6367H28.6133C29.793 22.6367 30.6758 22.3984 31.2617 21.9219C31.7617 21.5156 32.125 20.8555 32.3516 19.9414ZM63.5117 26.2695H57.1953L55.8008 31.9883H51.7578L53.4805 26.2695H50.2227L46.4609 31.9883H43.0273L42.1953 17.1406L37.7422 31.9883H34.5195L39.8164 14.5391H45.2305V0.523438H63.5117V26.2695ZM62.8906 25.6484V1.14453H45.8516V22.0508L45.8633 25.6484H47.3633C47.8867 24.6484 48.418 23.6758 48.957 22.7305C49.582 21.6367 50.332 20.4102 51.207 19.0508C52.1445 17.5898 53.1562 16.0859 54.2422 14.5391H60.0547L57.3477 25.6484H62.8906ZM56.2227 17.1406L50.6328 25.6484H53.668L56.2227 17.1406ZM47.0469 26.2695H45.8398C45.8398 26.8008 45.8125 27.332 45.7578 27.8633C45.7031 28.3867 45.625 29 45.5234 29.7031C45.7578 29.0859 46.0078 28.4844 46.2734 27.8984C46.4453 27.5156 46.7031 26.9727 47.0469 26.2695ZM83.7617 26.2695H76.2148L74.6211 31.7773C74.1289 31.9727 73.2461 32.125 71.9727 32.2344C70.6992 32.3438 69.4023 32.3984 68.082 32.3984C66.9414 32.3984 65.875 32.207 64.8828 31.8242C63.7188 31.3789 62.8008 30.7266 62.1289 29.8672C61.3477 28.875 60.957 27.668 60.957 26.2461C60.957 25.7695 60.9922 25.3008 61.0625 24.8398C61.1328 24.3711 61.2578 23.8438 61.4375 23.2578C61.9375 21.6484 62.5273 20.25 63.207 19.0625C63.8867 17.875 64.6445 16.9258 65.4805 16.2148V0.523438H83.7617V26.2695ZM83.1289 25.6484V1.14453H66.1016V15.6992C66.9688 15.082 67.9492 14.6484 69.043 14.3984C69.8398 14.2188 70.7656 14.1289 71.8203 14.1289C73.8359 14.1289 75.418 14.6172 76.5664 15.5938C77.5977 16.4688 78.1133 17.5508 78.1133 18.8398C78.1133 19.3477 78.0234 19.8516 77.8438 20.3516H74.4102V19.9414C74.5195 19.5508 74.5742 19.2109 74.5742 18.9219C74.5742 18.2344 74.293 17.7109 73.7305 17.3516C73.2148 17.0234 72.4375 16.8125 71.3984 16.7188C70.2656 16.7188 69.2461 17.0586 68.3398 17.7383C67.4414 18.4102 66.6953 19.4102 66.1016 20.7383V25.6484H68.9141L69.7461 22.8477H77.2109L76.4023 25.6484H83.1289ZM72.5234 26.2695H65.4805V22.3555C65.0117 23.8242 64.7773 25.0898 64.7773 26.1523C64.7773 27.4414 65.1094 28.4258 65.7734 29.1055C66.4453 29.7773 67.4219 30.1133 68.7031 30.1133C69.6641 30.1133 70.3711 30.0508 70.8242 29.9258C71.1055 29.8477 71.2969 29.7031 71.3984 29.4922L72.5234 26.2695Z" fill="#005EB8"/>
</svg>
