<svg width="56" height="56" viewBox="0 0 56 56" fill="none" xmlns="http://www.w3.org/2000/svg">
<path fill-rule="evenodd" clip-rule="evenodd" d="M56 28C56 43.4277 43.4298 56 28.0001 56C12.5703 56 0 43.4296 0 28C0 12.5721 12.5703 0 28.0001 0C43.5708 0.00191268 56 12.5721 56 28ZM41.2295 24.3143C42.7592 22.7846 42.7592 20.3043 41.2295 18.7747C39.6997 17.2447 37.2194 17.2447 35.6898 18.7747L22.7909 31.6735L18.4385 27.3212C16.9089 25.7913 14.4286 25.7913 12.8989 27.3212C11.3691 28.8509 11.3691 31.3312 12.8989 32.8608L20.021 39.983C21.5507 41.5129 24.031 41.5129 25.5608 39.983L41.2295 24.3143Z" fill="#00A3A1"/>
</svg>
