<svg width="32" height="32" viewBox="0 0 32 32" fill="none" xmlns="http://www.w3.org/2000/svg">
<circle opacity="0.2" cx="16" cy="16" r="16" fill="#00A3A1"/>
<path fill-rule="evenodd" clip-rule="evenodd" d="M12.5037 23C19.1074 23 22.7194 17.6132 22.7194 12.9423C22.7194 12.7889 22.7194 12.6365 22.7089 12.4848C23.4115 11.9852 24.0179 11.3649 24.5 10.6551C23.8455 10.9411 23.1499 11.1289 22.4385 11.2116C23.1875 10.7696 23.7484 10.0753 24.017 9.25603C23.3118 9.66781 22.5409 9.95813 21.7367 10.1141C20.377 8.6909 18.1029 8.62198 16.6565 9.96071C15.7246 10.8239 15.3282 12.111 15.6179 13.3386C12.7312 13.1956 10.0415 11.8534 8.218 9.64541C7.26512 11.2607 7.7525 13.3265 9.33013 14.3637C8.75875 14.3473 8.19963 14.1957 7.7 13.9218V13.9666C7.70087 15.649 8.90575 17.098 10.5805 17.4314C10.052 17.5736 9.49725 17.5942 8.96 17.4917C9.42987 18.9321 10.7782 19.9185 12.3139 19.9469C11.0425 20.9307 9.47187 21.4649 7.85487 21.4631C7.56963 21.4623 7.28437 21.4459 7 21.4123C8.64237 22.4495 10.5525 23 12.5037 22.9974" fill="#00A3A1"/>
</svg>
