<svg width="106" height="79" viewBox="0 0 106 79" fill="none" xmlns="http://www.w3.org/2000/svg">
<path fill-rule="evenodd" clip-rule="evenodd" d="M13.7122 0H42.098C43.5701 0 44.9581 0.685943 45.8524 1.85534L49.1591 6.17949C50.0533 7.34888 51.4414 8.03483 52.9135 8.03483H91.461C94.0713 8.03483 96.1873 10.1509 96.1873 12.7612V51.555C94.4158 50.9188 92.5062 50.5721 90.5156 50.5721C81.2491 50.5721 73.737 58.0842 73.737 67.3507C73.737 71.6101 75.3242 75.4988 77.9393 78.4577H13.7122C11.1019 78.4577 8.98584 76.3416 8.98584 73.7313V4.72637C8.98584 2.11607 11.1019 0 13.7122 0Z" fill="#DDDAEC"/>
<path fill-rule="evenodd" clip-rule="evenodd" d="M20.8018 14.1791C18.1915 14.1791 16.0754 16.2952 16.0754 18.9055V73.7313C16.0754 76.3416 18.1915 78.4577 20.8018 78.4577H77.9393C75.3242 75.4988 73.737 71.6101 73.737 67.3507C73.737 58.3216 80.869 50.9583 89.8068 50.5868V18.9055C89.8068 16.2952 87.6907 14.1791 85.0804 14.1791H20.8018Z" fill="white"/>
<path d="M0.0897176 33.0479C-0.482225 30.1285 1.75295 27.4129 4.72792 27.4129H100.445C103.42 27.4129 105.655 30.1285 105.083 33.048L96.9352 74.64C96.5007 76.8578 94.557 78.4577 92.297 78.4577H12.8761C10.6161 78.4577 8.67235 76.8578 8.23787 74.64L0.0897176 33.0479Z" fill="#483698"/>
</svg>
