<svg width="14" height="16" viewBox="0 0 14 16" fill="none" xmlns="http://www.w3.org/2000/svg">
<path d="M8.13243 1.33333H3.48532C3.1772 1.33333 2.8817 1.4738 2.66382 1.72385C2.44595 1.9739 2.32355 2.31304 2.32355 2.66666V13.3333C2.32355 13.687 2.44595 14.0261 2.66382 14.2761C2.8817 14.5262 3.1772 14.6667 3.48532 14.6667H10.456C10.7641 14.6667 11.0596 14.5262 11.2775 14.2761C11.4954 14.0261 11.6178 13.687 11.6178 13.3333V5.33333L8.13243 1.33333Z" stroke="#07050E" stroke-width="1.5" stroke-linecap="round" stroke-linejoin="round"/>
<path d="M8.13245 1.33333V5.33333H11.6178" stroke="#07050E" stroke-width="1.5" stroke-linecap="round" stroke-linejoin="round"/>
<path d="M9.2942 8.66666H4.64709" stroke="#07050E" stroke-width="1.5" stroke-linecap="round" stroke-linejoin="round"/>
<path d="M9.2942 11.3333H4.64709" stroke="#07050E" stroke-width="1.5" stroke-linecap="round" stroke-linejoin="round"/>
<path d="M5.80887 6H5.22798H4.64709" stroke="#07050E" stroke-width="1.5" stroke-linecap="round" stroke-linejoin="round"/>
</svg>
