<svg width="256" height="116" viewBox="0 0 256 116" fill="none" xmlns="http://www.w3.org/2000/svg">
<rect width="256" height="116" rx="5" fill="#483698"/>
<mask id="mask0" mask-type="alpha" maskUnits="userSpaceOnUse" x="0" y="0" width="256" height="116">
<rect width="256" height="116" rx="5" fill="#483698"/>
</mask>
<g mask="url(#mask0)">
<path fill-rule="evenodd" clip-rule="evenodd" d="M228.431 38C234.412 38 239.262 33.0751 239.262 27C239.262 20.9249 234.412 16 228.431 16C222.449 16 217.6 20.9249 217.6 27C217.6 33.0751 222.449 38 228.431 38ZM-25.6 112C0.98461 83.5 26.0923 58 64 49C67.07 50.7817 69.3831 52.5634 71.4666 54.1684C78.7384 59.7698 83.2153 63.2183 107.323 57C118.694 54.0671 124.771 50.3277 129.436 47.4573C137.495 42.4982 141.34 40.1326 160.985 49C174.927 55.2934 177.628 61.9909 179.685 67.0941C182.205 73.3434 183.761 77.2019 203.815 75C208.43 76.406 208.719 77.153 209.092 78.1161C209.515 79.208 210.045 80.5776 217.108 83.5C221.573 85.3476 224.316 86.8567 226.513 88.0651C230.855 90.454 233.061 91.668 242.215 92C249.55 92.266 251.449 90.5503 252.955 90.8447C254.279 91.1036 255.3 92.917 259.446 99C268.308 112 266.338 127 264.862 130.5C263.68 133.3 70.7282 131.667 -25.6 130.5V112Z" fill="white" fill-opacity="0.05"/>
</g>
</svg>
