<svg width="74" height="30" viewBox="0 0 74 30" fill="none" xmlns="http://www.w3.org/2000/svg">
<path d="M56.5233 0.883484V14.8996L56.3424 15.0472L56.1614 15.1949L55.9879 15.35L55.822 15.5051L55.6636 15.6602L55.5053 15.8226L55.3544 15.9851L55.2036 16.1476V0.883484H39.3439V13.6442H38.0317V0.883484H22.1721V13.6663H20.8599V0.883484H5.0002V15.4534L0.950439 28.6645H4.51001L6.29733 22.8159H6.81015L9.76639 28.6645H14.065L11.1993 22.8159H17.7L15.8976 28.6645H19.7814L21.5612 22.8307H22.4209V22.8159H23.6426H23.7407H31.0785L29.3591 28.6497H33.2806L34.9473 22.8159H36.712L36.7572 28.6497H40.0453L43.8235 22.8159H46.2971L45.0151 28.6497H48.8763L50.1357 22.8159H52.368L52.3529 23.1482L52.3609 23.4879L52.376 23.8128L52.4061 24.1377L52.4287 24.2928L52.4513 24.4479L52.4815 24.603L52.5116 24.758L52.5493 24.9131L52.587 25.0608L52.6322 25.2085L52.6774 25.3562L52.7302 25.5039L52.7831 25.6442L52.8433 25.7845L52.9037 25.9174L52.9716 26.0577L53.0395 26.1907L53.115 26.3162L53.1904 26.4491L53.2734 26.5747L53.3639 26.6928L53.4544 26.8184L53.5524 26.9291L53.6505 27.0473L53.7485 27.158L53.8616 27.2688L53.9747 27.3722L54.118 27.4904L54.2613 27.6085L54.4121 27.7193L54.5705 27.8227L54.7289 27.9261L54.8873 28.022L55.0532 28.1032L55.2266 28.1919L55.3925 28.2657L55.566 28.3395L55.7394 28.406L55.9204 28.4725L56.1014 28.5316L56.2824 28.5833L56.4634 28.635L56.6444 28.6793L57.0064 28.7605L57.3759 28.8196L57.7379 28.8713L58.0999 28.9156L58.4544 28.9451L58.8013 28.9599L59.1406 28.9747H59.4649L59.9023 28.9677L60.3397 28.9607L60.7847 28.9385L61.2296 28.9164L61.6746 28.8794L62.1195 28.8425L62.5645 28.7981L63.0094 28.7465L63.4619 28.6873L63.9144 28.6209L64.3669 28.547L64.8193 28.4732L65.2718 28.392L65.7243 28.3034L66.1768 28.2148L66.6368 28.1114L67.9792 22.8166H72.3834V0.884167H56.5238L56.5233 0.883484ZM6.47078 22.2694L6.49338 22.1882L6.54622 22.2694H6.47078ZM20.2867 14.4122L20.0605 15.158L17.9489 22.0257L17.8659 22.2694H10.9278L10.3923 21.147L17.8659 13.6663H13.062L7.21736 19.8325L9.11026 13.6663H5.56579V1.43734H20.2867V14.4122H20.2867ZM24.3817 20.2165L24.2686 20.2235L24.163 20.2305L24.0499 20.2375H23.9292H23.7709H23.6351L23.5069 20.2445H23.3862L22.4436 20.2375L22.881 18.6572L23.0846 17.8744L23.5823 16.0357H23.7407H23.9066L24.065 16.0287H24.2158H24.9473L25.3923 16.0357L25.7995 16.0505L25.9805 16.0575L26.154 16.0723L26.3199 16.0944L26.4707 16.1166L26.6064 16.1388L26.7346 16.1757L26.8553 16.2127L26.9609 16.257L27.0514 16.3013L27.1344 16.3604L27.2098 16.4196L27.2701 16.4934L27.3078 16.5525L27.3379 16.6116L27.368 16.6781L27.3907 16.752L27.4057 16.8332L27.4137 16.9143V17.003V17.099L27.4057 17.2023L27.3986 17.3057L27.376 17.4239L27.3534 17.542L27.2855 17.7931L27.2025 18.0737L27.1196 18.31L27.0291 18.539L26.931 18.7531L26.8254 18.9525L26.7726 19.0411L26.7198 19.1297L26.6594 19.2183L26.5915 19.2995L26.5236 19.3807L26.4557 19.4546L26.3802 19.5284L26.3048 19.5949L26.2218 19.654L26.1388 19.7205L26.0483 19.7722L25.9503 19.8313L25.8522 19.883L25.7467 19.9273L25.6411 19.9716L25.528 20.0086L25.4073 20.0529L25.2791 20.0824L25.1434 20.1119L25.0076 20.1414L24.8568 20.1636L24.706 20.1858L24.5476 20.2006L24.3817 20.2154L24.3817 20.2165ZM35.1056 22.2694L36.6516 16.8786L36.712 22.2694H35.1057H35.1056ZM37.4586 13.6442H33.7784L31.2444 22.2694H27.338L27.519 22.1956L27.6999 22.1218L27.8734 22.0479L28.0468 21.9667L28.2128 21.8855L28.3711 21.7895L28.5295 21.7009L28.6803 21.6049L28.8312 21.5015L28.9744 21.3982L29.1102 21.2948L29.2459 21.1766L29.3741 21.0658L29.4948 20.9403L29.6155 20.8221L29.7286 20.6892L29.8417 20.5637L29.9473 20.4234L30.0453 20.2905L30.1434 20.1428L30.2339 19.9951L30.3169 19.8474L30.3998 19.6923L30.4753 19.5298L30.5507 19.3674L30.6186 19.2049L30.6789 19.0351L30.7393 18.8578L30.7845 18.6806L30.8373 18.5034L30.875 18.3114L30.9127 18.1268L30.9655 17.8314L31.0107 17.5508L31.0409 17.2849L31.0635 17.0338L31.0715 16.7827L31.0635 16.5538L31.0564 16.3249L31.0262 16.1107L30.9961 15.9114L30.9433 15.712L30.8904 15.5274L30.815 15.3501L30.732 15.1803L30.6415 15.0104L30.5359 14.8554L30.4153 14.7077L30.3172 14.6043L30.2192 14.5009L30.1136 14.4123L30.0005 14.3311L29.8798 14.2499L29.7592 14.176L29.631 14.1096L29.5028 14.0504L29.367 13.9913L29.2313 13.947L29.088 13.9027L28.9447 13.8584L28.7939 13.8214L28.643 13.7919L28.4922 13.7624L28.3338 13.7402L28.0095 13.6959L27.6853 13.6737L27.3534 13.6516L27.0141 13.6446H26.3354H25.6642H25.453H25.0759H24.6084H24.088H23.5827H23.1529H22.8512H22.7381V1.43773H37.459V13.6446L37.4586 13.6442ZM46.4027 22.2694H44.1931L47.5415 17.1002L46.4027 22.2694ZM54.6305 13.8879L54.6225 16.8786L54.4339 17.1371L54.2605 17.403L54.087 17.6688L53.9287 17.9347L53.7778 18.2005L53.627 18.4737L53.4988 18.7396L53.3706 19.0054L53.2499 19.2639L53.1444 19.5297L53.0388 19.7882L52.9483 20.0393L52.8653 20.2903L52.7898 20.534L52.7219 20.7704L52.6616 21.0067L52.6239 21.1617L52.5862 21.3242L52.5485 21.4793L52.5184 21.6417L52.4883 21.7968L52.4656 21.9519L52.443 22.107L52.428 22.2694H50.2636L52.1112 13.6663L45.882 13.6593L40.3089 22.2698H39.9016V1.43771H54.6301V13.8882L54.6305 13.8879ZM63.1221 25.7919L62.8129 25.8436L62.4962 25.8879L62.1794 25.9322L61.8702 25.9692L61.561 25.9987L61.2518 26.0209L60.9502 26.0357H60.6485H60.4524L60.2564 26.0287L60.0678 26.0139L59.8793 25.9917L59.6983 25.9622L59.5248 25.9327L59.3514 25.8957L59.1855 25.8514L59.0271 25.7997L58.8687 25.748L58.7179 25.6816L58.5746 25.6151L58.4313 25.5339L58.2956 25.4527L58.1674 25.3641L58.0467 25.2755L57.9261 25.1721L57.8205 25.0613L57.7149 24.9505L57.6169 24.825L57.5264 24.6995L57.4434 24.5591L57.3679 24.4188L57.2925 24.2711L57.2321 24.1161L57.1793 23.9462L57.1341 23.7764L57.0889 23.5991L57.0587 23.4145L57.0361 23.2225L57.021 23.0231L57.0131 22.8164H63.8758L63.1216 25.7924L63.1221 25.7919ZM71.8249 22.2694H68.1146L68.7254 19.862H61.2896L60.6787 22.2694H57.0814V21.7747L57.1266 21.5679L57.1643 21.3611L57.2095 21.1396L57.2547 20.918L57.3226 20.6744L57.3905 20.4307L57.466 20.187L57.549 19.9507L57.6395 19.7143L57.7375 19.478L57.8431 19.2491L57.9487 19.0202L58.0693 18.7913L58.19 18.5771L58.3182 18.3556L58.4615 18.1488L58.6048 17.942L58.7481 17.7426L58.9064 17.5506L59.0723 17.366L59.2458 17.1888L59.4193 17.0263L59.6078 16.8639L59.7963 16.7088L59.9924 16.5685L60.2036 16.4356L60.4147 16.3174L60.6334 16.2066L60.8597 16.1033L61.0934 16.0146L61.3348 15.9408L61.5836 15.8817L61.84 15.83L62.104 15.793L62.3755 15.7709L62.6545 15.7639L62.8732 15.7709L63.0919 15.7857L63.3106 15.8152L63.5218 15.8595L63.6274 15.889L63.7254 15.9186L63.8235 15.9481L63.914 15.9924L64.0045 16.0294L64.095 16.081L64.1779 16.1327L64.2609 16.1844L64.3363 16.2509L64.4118 16.3173L64.4797 16.3838L64.5476 16.465L64.608 16.5389L64.6608 16.6275L64.706 16.7235L64.7512 16.8195L64.7889 16.9229L64.8191 17.0336L64.8417 17.1444L64.8643 17.2699L64.8722 17.3955V17.5284V17.6687L64.8572 17.8164H69.2915L69.3595 17.5136L69.4198 17.1665L69.45 16.9819L69.465 16.7825L69.4801 16.5832V16.3764L69.473 16.1622L69.4504 15.9407L69.4278 15.8373L69.4127 15.7265L69.3826 15.6158L69.3525 15.505L69.3148 15.3868L69.2771 15.2761L69.2319 15.1653L69.179 15.0545L69.1262 14.9438L69.0583 14.833L68.9904 14.7222L68.915 14.6115L68.8245 14.4933L68.7264 14.3825L68.6284 14.2718L68.5228 14.1684L68.4097 14.065L68.289 13.969L68.1684 13.8804L68.0402 13.7918L67.9044 13.7031L67.7687 13.6293L67.6254 13.5555L67.4745 13.4816L67.3237 13.4152L67.1653 13.3487L66.9994 13.2896L66.8335 13.2304L66.6676 13.1788L66.4866 13.1344L66.3132 13.0901L66.1246 13.0458L65.9361 13.0088L65.7475 12.9719L65.5515 12.9424L65.3479 12.9202L64.9331 12.8759L64.5108 12.8389L64.0658 12.8241L63.6133 12.8171L63.274 12.8241L62.9195 12.8311L62.55 12.8533L62.1654 12.8828L61.7657 12.9271L61.3584 12.9788L60.9437 13.0453L60.5213 13.1339L60.3102 13.1782L60.0915 13.2299L59.8803 13.289L59.6616 13.3481L59.4429 13.4146L59.2242 13.4884L59.0055 13.5623L58.7943 13.6435L58.5756 13.7321L58.3569 13.8281L58.1458 13.9241L57.9271 14.0275L57.7159 14.1382L57.5048 14.2564L57.2936 14.3746L57.0824 14.5075V1.43665H71.826V22.2688L71.8249 22.2694Z" fill="white"/>
</svg>
