<svg width="333" height="116" viewBox="0 0 333 116" fill="none" xmlns="http://www.w3.org/2000/svg">
<rect width="333" height="116" rx="5" fill="#483698"/>
<mask id="mask0" mask-type="alpha" maskUnits="userSpaceOnUse" x="0" y="0" width="333" height="116">
<rect width="333" height="116" rx="5" fill="#483698"/>
</mask>
<g mask="url(#mask0)">
<path fill-rule="evenodd" clip-rule="evenodd" d="M294.05 38C300.125 38 305.05 33.0751 305.05 27C305.05 20.9249 300.125 16 294.05 16C287.975 16 283.05 20.9249 283.05 27C283.05 33.0751 287.975 38 294.05 38ZM-19.8284 100.651C9.61198 75.5765 38.3598 51.0916 83.25 49C93.2467 48.5342 102.603 51.6296 111.248 54.4896C121.805 57.982 131.3 61.1234 139.604 57C154.708 49.5 193 33.5 209.406 49C221.242 60.1829 240.253 66.4208 253.349 70.718C258.405 72.3769 262.579 73.7466 265.119 75C268.663 76.7486 269.452 77.5913 270.108 78.2907C271.139 79.3912 271.838 80.1373 282.41 83.5C288.218 85.3476 291.786 86.8567 294.643 88.0651C300.292 90.454 303.162 91.668 315.069 92C324.78 92.2708 327.166 90.4884 329.143 90.8624C330.817 91.1791 332.199 93.0407 337.483 99C349.01 112 346.448 127 344.527 130.5C342.99 133.3 92.0019 131.667 -33.3 130.5V112C-28.7547 108.254 -24.2836 104.446 -19.8284 100.651Z" fill="white" fill-opacity="0.05"/>
</g>
</svg>
