<svg width="16" height="16" viewBox="0 0 16 16" fill="none" xmlns="http://www.w3.org/2000/svg">
<path d="M2 4H3.33333H14" stroke="#32323D" stroke-width="1.5" stroke-linecap="round" stroke-linejoin="round"/>
<path d="M5.33398 3.99998V2.66665C5.33398 2.31302 5.47446 1.97389 5.72451 1.72384C5.97456 1.47379 6.3137 1.33331 6.66732 1.33331H9.33398C9.68761 1.33331 10.0267 1.47379 10.2768 1.72384C10.5268 1.97389 10.6673 2.31302 10.6673 2.66665V3.99998M12.6673 3.99998V13.3333C12.6673 13.6869 12.5268 14.0261 12.2768 14.2761C12.0267 14.5262 11.6876 14.6666 11.334 14.6666H4.66732C4.3137 14.6666 3.97456 14.5262 3.72451 14.2761C3.47446 14.0261 3.33398 13.6869 3.33398 13.3333V3.99998H12.6673Z" stroke="#32323D" stroke-width="1.5" stroke-linecap="round" stroke-linejoin="round"/>
</svg>
